<?xml version="1.0" encoding="UTF-8"?>
<svg width="400px" height="300px" viewBox="0 0 400 300" version="1.1" xmlns="http://www.w3.org/2000/svg" xmlns:xlink="http://www.w3.org/1999/xlink">
    <title>Image Placeholder</title>
    <defs>
        <linearGradient x1="0%" y1="0%" x2="100%" y2="100%" id="linearGradient-1">
            <stop stop-color="#E0E0E0" offset="0%"></stop>
            <stop stop-color="#BDBDBD" offset="100%"></stop>
        </linearGradient>
    </defs>
    <g id="Page-1" stroke="none" stroke-width="1" fill="none" fill-rule="evenodd">
        <rect id="Background" fill="url(#linearGradient-1)" x="0" y="0" width="400" height="300"></rect>
        <g id="Icon" transform="translate(150.000000, 100.000000)" fill="#9E9E9E">
            <path d="M50,0 C77.6142375,0 100,22.3857625 100,50 C100,77.6142375 77.6142375,100 50,100 C22.3857625,100 0,77.6142375 0,50 C0,22.3857625 22.3857625,0 50,0 Z M50,20 C33.4314575,20 20,33.4314575 20,50 C20,66.5685425 33.4314575,80 50,80 C66.5685425,80 80,66.5685425 80,50 C80,33.4314575 66.5685425,20 50,20 Z" id="Shape" fill-rule="nonzero"></path>
            <path d="M30,40 L70,40 L70,60 L30,60 L30,40 Z" id="Rectangle"></path>
        </g>
        <text id="Image-Not-Found" font-family="Arial-BoldMT, Arial" font-size="24" font-weight="bold" fill="#757575" text-anchor="middle" x="200" y="230">
            Image Not Found
        </text>
    </g>
</svg>
