<?xml version="1.0" encoding="UTF-8" standalone="no"?>
<svg width="400" height="300" viewBox="0 0 400 300" xmlns="http://www.w3.org/2000/svg">
  <rect width="400" height="300" fill="#f8f9fa"/>
  
  <!-- Central ear icon -->
  <path d="M200,150 C200,130 180,120 170,120 C155,120 150,130 150,140 C150,145 152,150 155,155 L162,165 C165,170 165,175 160,180 C155,185 145,180 145,170 L145,165 L135,165 L135,170 C135,190 155,200 170,190 C180,185 180,175 175,165 L170,155 C165,150 165,145 170,140 C175,135 185,140 185,150 L185,155 L195,155 Z" 
        fill="#4b5563"/>
  
  <!-- Sound sources with directional waves -->
  <!-- Left source -->
  <circle cx="80" cy="150" r="15" fill="#3b82f6"/>
  <path d="M 95,150 Q 130,150 145,150" stroke="#3b82f6" stroke-width="2" fill="none"/>
  <path d="M 95,140 Q 125,140 145,140" stroke="#3b82f6" stroke-width="1.5" fill="none" opacity="0.7"/>
  <path d="M 95,160 Q 125,160 145,160" stroke="#3b82f6" stroke-width="1.5" fill="none" opacity="0.7"/>
  
  <!-- Right source -->
  <circle cx="320" cy="150" r="15" fill="#ef4444"/>
  <path d="M 305,150 Q 270,150 255,150" stroke="#ef4444" stroke-width="2" fill="none"/>
  <path d="M 305,140 Q 275,140 255,140" stroke="#ef4444" stroke-width="1.5" fill="none" opacity="0.7"/>
  <path d="M 305,160 Q 275,160 255,160" stroke="#ef4444" stroke-width="1.5" fill="none" opacity="0.7"/>
  
  <!-- Top source -->
  <circle cx="200" cy="70" r="15" fill="#10b981"/>
  <path d="M 200,85 Q 200,110 200,120" stroke="#10b981" stroke-width="2" fill="none"/>
  <path d="M 190,85 Q 190,105 190,120" stroke="#10b981" stroke-width="1.5" fill="none" opacity="0.7"/>
  <path d="M 210,85 Q 210,105 210,120" stroke="#10b981" stroke-width="1.5" fill="none" opacity="0.7"/>
  
  <!-- Bottom source -->
  <circle cx="200" cy="230" r="15" fill="#f59e0b"/>
  <path d="M 200,215 Q 200,190 200,180" stroke="#f59e0b" stroke-width="2" fill="none"/>
  <path d="M 190,215 Q 190,195 190,180" stroke="#f59e0b" stroke-width="1.5" fill="none" opacity="0.7"/>
  <path d="M 210,215 Q 210,195 210,180" stroke="#f59e0b" stroke-width="1.5" fill="none" opacity="0.7"/>
  
  <!-- Labels -->
  <text x="200" y="30" font-family="Arial" font-size="18" font-weight="bold" text-anchor="middle">Directional Hearing</text>
  <text x="200" y="270" font-family="Arial" font-size="14" text-anchor="middle" fill="#666">Ability to locate sound sources</text>
</svg>
