<?xml version="1.0" encoding="UTF-8" standalone="no"?>
<svg width="400" height="300" viewBox="0 0 400 300" xmlns="http://www.w3.org/2000/svg">
  <rect width="400" height="300" fill="#f8f9fa"/>
  
  <!-- Low frequency sound wave (125-250 Hz) -->
  <path d="M 50,150 
           C 80,100 120,200 150,150 
           C 180,100 220,200 250,150 
           C 280,100 320,200 350,150" 
        stroke="#3b82f6" stroke-width="4" fill="none"/>
  
  <!-- Labels -->
  <text x="200" y="50" font-family="Arial" font-size="18" font-weight="bold" text-anchor="middle">Low Frequency (125-250 Hz)</text>
  <text x="200" y="80" font-family="Arial" font-size="14" text-anchor="middle" fill="#666">Examples: Thunder, bass drums, tuba</text>
  
  <!-- Ear icon -->
  <path d="M320,240 C320,220 300,210 290,210 C275,210 270,220 270,230 C270,235 272,240 275,245 L282,255 C285,260 285,265 280,270 C275,275 265,270 265,260 L265,255 L255,255 L255,260 C255,280 275,290 290,280 C300,275 300,265 295,255 L290,245 C285,240 285,235 290,230 C295,225 305,230 305,240 L305,245 L315,245 Z" 
        fill="#4b5563"/>
</svg>
