<?xml version="1.0" encoding="UTF-8" standalone="no"?>
<svg width="400" height="300" viewBox="0 0 400 300" xmlns="http://www.w3.org/2000/svg">
  <rect width="400" height="300" fill="#f8f9fa"/>
  
  <!-- Mid frequency sound wave (500-2000 Hz) -->
  <path d="M 50,150 
           C 65,120 85,180 100,150 
           C 115,120 135,180 150,150 
           C 165,120 185,180 200,150 
           C 215,120 235,180 250,150 
           C 265,120 285,180 300,150 
           C 315,120 335,180 350,150" 
        stroke="#10b981" stroke-width="4" fill="none"/>
  
  <!-- Labels -->
  <text x="200" y="50" font-family="Arial" font-size="18" font-weight="bold" text-anchor="middle">Mid Frequency (500-2000 Hz)</text>
  <text x="200" y="80" font-family="Arial" font-size="14" text-anchor="middle" fill="#666">Examples: Human speech, piano, telephone</text>
  
  <!-- Ear icon -->
  <path d="M320,240 C320,220 300,210 290,210 C275,210 270,220 270,230 C270,235 272,240 275,245 L282,255 C285,260 285,265 280,270 C275,275 265,270 265,260 L265,255 L255,255 L255,260 C255,280 275,290 290,280 C300,275 300,265 295,255 L290,245 C285,240 285,235 290,230 C295,225 305,230 305,240 L305,245 L315,245 Z" 
        fill="#4b5563"/>
</svg>
