<?xml version="1.0" encoding="UTF-8" standalone="no"?>
<svg width="400" height="400" viewBox="0 0 400 400" xmlns="http://www.w3.org/2000/svg">
  <circle cx="200" cy="200" r="190" fill="#000000"/>
  
  <!-- Sunburst pattern with varying line thicknesses -->
  <g stroke="#FFFFFF">
    <!-- Thicker lines at cardinal directions -->
    <line x1="50" y1="200" x2="350" y2="200" stroke-width="3" />
    <line x1="200" y1="50" x2="200" y2="350" stroke-width="3" />
    
    <!-- Medium thickness at 45 degrees -->
    <line x1="80" y1="80" x2="320" y2="320" stroke-width="2" />
    <line x1="320" y1="80" x2="80" y2="320" stroke-width="2" />
    
    <!-- Thinner lines at other angles -->
    <line x1="115" y1="60" x2="285" y2="340" stroke-width="1" />
    <line x1="285" y1="60" x2="115" y2="340" stroke-width="1" />
    <line x1="60" y1="115" x2="340" y2="285" stroke-width="1" />
    <line x1="340" y1="115" x2="60" y2="285" stroke-width="1" />
    
    <line x1="145" y1="55" x2="255" y2="345" stroke-width="1" />
    <line x1="255" y1="55" x2="145" y2="345" stroke-width="1" />
    <line x1="55" y1="145" x2="345" y2="255" stroke-width="1" />
    <line x1="345" y1="145" x2="55" y2="255" stroke-width="1" />
    
    <line x1="170" y1="52" x2="230" y2="348" stroke-width="1" />
    <line x1="230" y1="52" x2="170" y2="348" stroke-width="1" />
    <line x1="52" y1="170" x2="348" y2="230" stroke-width="1" />
    <line x1="348" y1="170" x2="52" y2="230" stroke-width="1" />
    
    <!-- Central dot -->
    <circle cx="200" cy="200" r="5" fill="#FF0000" stroke="none" />
  </g>
</svg>
