<?xml version="1.0" encoding="UTF-8" standalone="no"?>
<svg width="400" height="400" viewBox="0 0 400 400" xmlns="http://www.w3.org/2000/svg">
  <circle cx="200" cy="200" r="190" fill="#000000"/>
  
  <!-- Radial starburst pattern -->
  <g stroke="#FFFFFF" stroke-width="1.5">
    <!-- 24 lines radiating from center at 15-degree intervals -->
    <line x1="200" y1="200" x2="200" y2="30" />
    <line x1="200" y1="200" x2="243" y2="37" />
    <line x1="200" y1="200" x2="283" y2="57" />
    <line x1="200" y1="200" x2="313" y2="87" />
    <line x1="200" y1="200" x2="333" y2="127" />
    <line x1="200" y1="200" x2="343" y2="173" />
    <line x1="200" y1="200" x2="343" y2="227" />
    <line x1="200" y1="200" x2="333" y2="273" />
    <line x1="200" y1="200" x2="313" y2="313" />
    <line x1="200" y1="200" x2="283" y2="343" />
    <line x1="200" y1="200" x2="243" y2="363" />
    <line x1="200" y1="200" x2="200" y2="370" />
    <line x1="200" y1="200" x2="157" y2="363" />
    <line x1="200" y1="200" x2="117" y2="343" />
    <line x1="200" y1="200" x2="87" y2="313" />
    <line x1="200" y1="200" x2="67" y2="273" />
    <line x1="200" y1="200" x2="57" y2="227" />
    <line x1="200" y1="200" x2="57" y2="173" />
    <line x1="200" y1="200" x2="67" y2="127" />
    <line x1="200" y1="200" x2="87" y2="87" />
    <line x1="200" y1="200" x2="117" y2="57" />
    <line x1="200" y1="200" x2="157" y2="37" />
    
    <!-- Concentric circles -->
    <circle cx="200" cy="200" r="50" fill="none" />
    <circle cx="200" cy="200" r="100" fill="none" />
    <circle cx="200" cy="200" r="150" fill="none" />
    
    <!-- Central dot -->
    <circle cx="200" cy="200" r="5" fill="#FF0000" stroke="none" />
  </g>
</svg>
