<?xml version="1.0" encoding="UTF-8" standalone="no"?>
<svg width="400" height="400" viewBox="0 0 400 400" xmlns="http://www.w3.org/2000/svg">
  <circle cx="200" cy="200" r="190" fill="#000000"/>
  
  <!-- Concentric circles with radiating lines -->
  <g stroke="#FFFFFF">
    <!-- Concentric circles -->
    <circle cx="200" cy="200" r="40" fill="none" stroke-width="1" />
    <circle cx="200" cy="200" r="80" fill="none" stroke-width="1" />
    <circle cx="200" cy="200" r="120" fill="none" stroke-width="1" />
    <circle cx="200" cy="200" r="160" fill="none" stroke-width="1" />
    
    <!-- Radiating lines at 30-degree intervals -->
    <line x1="200" y1="200" x2="200" y2="40" stroke-width="1" />
    <line x1="200" y1="200" x2="260" y2="60" stroke-width="1" />
    <line x1="200" y1="200" x2="300" y2="120" stroke-width="1" />
    <line x1="200" y1="200" x2="320" y2="200" stroke-width="1" />
    <line x1="200" y1="200" x2="300" y2="280" stroke-width="1" />
    <line x1="200" y1="200" x2="260" y2="340" stroke-width="1" />
    <line x1="200" y1="200" x2="200" y2="360" stroke-width="1" />
    <line x1="200" y1="200" x2="140" y2="340" stroke-width="1" />
    <line x1="200" y1="200" x2="100" y2="280" stroke-width="1" />
    <line x1="200" y1="200" x2="80" y2="200" stroke-width="1" />
    <line x1="200" y1="200" x2="100" y2="120" stroke-width="1" />
    <line x1="200" y1="200" x2="140" y2="60" stroke-width="1" />
    
    <!-- Central dot -->
    <circle cx="200" cy="200" r="5" fill="#FF0000" stroke="none" />
  </g>
</svg>
