<?xml version="1.0" encoding="UTF-8" standalone="no"?>
<svg width="400" height="400" viewBox="0 0 400 400" xmlns="http://www.w3.org/2000/svg">
  <circle cx="200" cy="200" r="190" fill="#000000"/>
  
  <!-- Grid pattern for astigmatism test -->
  <g stroke="#FFFFFF" stroke-width="1">
    <!-- Horizontal lines -->
    <line x1="50" y1="100" x2="350" y2="100" />
    <line x1="50" y1="120" x2="350" y2="120" />
    <line x1="50" y1="140" x2="350" y2="140" />
    <line x1="50" y1="160" x2="350" y2="160" />
    <line x1="50" y1="180" x2="350" y2="180" />
    <line x1="50" y1="200" x2="350" y2="200" stroke-width="2" />
    <line x1="50" y1="220" x2="350" y2="220" />
    <line x1="50" y1="240" x2="350" y2="240" />
    <line x1="50" y1="260" x2="350" y2="260" />
    <line x1="50" y1="280" x2="350" y2="280" />
    <line x1="50" y1="300" x2="350" y2="300" />
    
    <!-- Vertical lines -->
    <line x1="100" y1="50" x2="100" y2="350" />
    <line x1="120" y1="50" x2="120" y2="350" />
    <line x1="140" y1="50" x2="140" y2="350" />
    <line x1="160" y1="50" x2="160" y2="350" />
    <line x1="180" y1="50" x2="180" y2="350" />
    <line x1="200" y1="50" x2="200" y2="350" stroke-width="2" />
    <line x1="220" y1="50" x2="220" y2="350" />
    <line x1="240" y1="50" x2="240" y2="350" />
    <line x1="260" y1="50" x2="260" y2="350" />
    <line x1="280" y1="50" x2="280" y2="350" />
    <line x1="300" y1="50" x2="300" y2="350" />
    
    <!-- Central dot -->
    <circle cx="200" cy="200" r="5" fill="#FF0000" stroke="none" />
  </g>
</svg>
